<svg fill="opacity" xmlns="http://www.w3.org/2000/svg" viewBox="424 340 162 20"> <path d="M430.742 360V350.877H433.804L434.262 347.322H430.742V345.052C430.742 344.022 431.027 343.321 432.504 343.321L434.386 343.32V340.14C433.475 340.044 432.559 339.997 431.643 340C428.929 340 427.07 341.657 427.07 344.7V347.322H424V350.877H427.07V360L430.742 360Z" fill="#ffffff"></path> <path d="M508 343.157C507.173 343.517 506.299 343.755 505.404 343.864C506.348 343.297 507.055 342.406 507.395 341.354C506.508 341.885 505.537 342.259 504.524 342.46C503.847 341.722 502.945 341.231 501.961 341.064C500.976 340.896 499.964 341.062 499.083 341.535C498.202 342.008 497.503 342.761 497.094 343.677C496.685 344.593 496.59 345.619 496.824 346.595C495.03 346.504 493.276 346.034 491.675 345.217C490.073 344.4 488.661 343.253 487.529 341.852C487.132 342.549 486.923 343.338 486.924 344.14C486.923 344.886 487.105 345.62 487.454 346.278C487.803 346.936 488.309 347.497 488.926 347.91C488.209 347.891 487.507 347.697 486.88 347.347V347.402C486.885 348.447 487.25 349.457 487.911 350.263C488.572 351.069 489.491 351.62 490.51 351.824C490.118 351.944 489.71 352.007 489.3 352.012C489.016 352.009 488.733 351.983 488.453 351.935C488.743 352.833 489.305 353.619 490.06 354.181C490.815 354.744 491.726 355.056 492.666 355.075C491.079 356.33 489.119 357.015 487.1 357.02C486.732 357.022 486.365 356.999 486 356.954C488.062 358.292 490.465 359.002 492.919 358.999C494.613 359.017 496.293 358.695 497.861 358.053C499.43 357.411 500.856 356.461 502.055 355.259C503.254 354.056 504.203 352.626 504.846 351.051C505.489 349.476 505.813 347.789 505.8 346.086C505.8 345.898 505.8 345.699 505.8 345.5C506.663 344.853 507.408 344.06 508 343.157V343.157Z" fill="#ffffff"></path> <path d="M585.994 347.344C586.052 345.678 585.683 344.025 584.919 342.538C584.401 341.928 583.682 341.516 582.888 341.374C579.601 341.081 576.302 340.96 573.002 341.014C569.715 340.958 566.427 341.074 563.152 341.363C562.505 341.479 561.905 341.778 561.428 342.224C560.365 343.19 560.247 344.842 560.129 346.238C559.957 348.749 559.957 351.268 560.129 353.779C560.163 354.565 560.281 355.345 560.483 356.106C560.625 356.694 560.913 357.237 561.321 357.688C561.802 358.158 562.416 358.474 563.081 358.596C565.627 358.906 568.193 359.034 570.758 358.98C574.892 359.038 578.518 358.98 582.805 358.654C583.487 358.54 584.118 358.223 584.612 357.747C584.943 357.421 585.19 357.022 585.333 356.583C585.755 355.306 585.962 353.97 585.947 352.627C585.994 351.975 585.994 348.042 585.994 347.344ZM570.333 353.325V346.122L577.325 349.741C575.364 350.811 572.778 352.022 570.333 353.325Z" fill="#ffffff"></path> </svg>